<svg viewBox="0 0 72 72" fill="none" xmlns="http://www.w3.org/2000/svg">
<path d="M18 70L11.05 66.52C10.7352 66.3638 10.4701 66.1229 10.2846 65.8243C10.0991 65.5258 10.0006 65.1815 10 64.83V58L18 60V70Z" fill="#8A6BE8" stroke="#231F20" stroke-width="3" stroke-linecap="round" stroke-linejoin="round"/>
<path d="M14 17L4.51 20.16C3.77943 20.4034 3.14392 20.8704 2.69346 21.495C2.24299 22.1195 2.00039 22.8699 2 23.64V53.14C1.99884 53.9576 2.27221 54.7519 2.77629 55.3956C3.28037 56.0393 3.98598 56.4951 4.78 56.69L14 59V17Z" fill="#8A6BE8" stroke="#231F20" stroke-width="3" stroke-linecap="round" stroke-linejoin="round"/>
<path d="M62 60H33L18 70V60C15 60 10 56.42 10 52V24C10 21.8783 10.8429 19.8434 12.3431 18.3431C13.8434 16.8429 15.8783 16 18 16H62C64.1217 16 66.1566 16.8429 67.6569 18.3431C69.1571 19.8434 70 21.8783 70 24V52C70 54.1217 69.1571 56.1566 67.6569 57.6569C66.1566 59.1571 64.1217 60 62 60Z" fill="white" stroke="#231F20" stroke-width="3" stroke-linecap="round" stroke-linejoin="round"/>
<path d="M59.07 7.04004L27 39H33L34 45L65.43 12.43L59.07 7.04004Z" fill="white"/>
<path d="M62 10L33 39L34 45L65.43 12.43L62 10Z" fill="#8A6BE8"/>
<path d="M59.77 6.39004L65.81 11.57L70 6.00004L69 3.00004L64.79 2.29004L59.77 6.39004Z" fill="white"/>
<path d="M63.1101 9.04L68.0001 4L69.6401 6.46L67.0101 10.7L63.5501 11.23L63.1101 9.04Z" fill="#8A6BE8"/>
<path d="M26 39L23 49L34 45L33 39H26Z" fill="#FFEDD4"/>
<path d="M68.6299 8.99992L32.5599 45.0899L23.3899 48.6399L26.9099 39.4399L62.9999 3.36992C63.3714 2.99802 63.8125 2.70298 64.2981 2.50169C64.7837 2.30039 65.3042 2.19678 65.8299 2.19678C66.3556 2.19678 66.8761 2.30039 67.3617 2.50169C67.8472 2.70298 68.2884 2.99802 68.6599 3.36992C69.3979 4.1229 69.8087 5.13679 69.8031 6.1911C69.7975 7.2454 69.3759 8.25486 68.6299 8.99992V8.99992Z" stroke="#231F20" stroke-width="3" stroke-linecap="round" stroke-linejoin="round"/>
<path d="M65.06 12.5801L59.55 7.08008" stroke="#231F20" stroke-width="3" stroke-linecap="round" stroke-linejoin="round"/>
<path d="M27.5901 39.04L32.5601 39.44L32.9501 44.41" stroke="#231F20" stroke-width="3" stroke-linecap="round" stroke-linejoin="round"/>
</svg>
