<svg viewBox="0 0 72 72" fill="none" xmlns="http://www.w3.org/2000/svg">
<g>
<path d="M52 24.22C52.0008 22.4982 51.5461 20.8067 50.682 19.3174C49.8179 17.8281 48.5752 16.5939 47.08 15.74C46.5367 11.9317 44.6394 8.44672 41.7359 5.92332C38.8323 3.39993 35.1168 2.00711 31.27 2C23.39 2 18 8.52 16.73 16C15.38 15.43 12.73 14.33 11.1 14.43C8.50486 14.4552 6.02602 15.5103 4.20879 17.3631C2.39157 19.216 1.38481 21.7149 1.41001 24.31C1.4352 26.9051 2.49028 29.384 4.34314 31.2012C6.196 33.0184 8.69486 34.0252 11.29 34H42.94C45.4096 33.8248 47.7202 32.7167 49.4027 30.9004C51.0853 29.0841 52.0138 26.6958 52 24.22Z" fill="#8A6BE8" stroke="#231F20" stroke-width="3" stroke-linecap="round" stroke-linejoin="round"/>
<path d="M24 49C27.866 49 31 45.866 31 42C31 38.134 27.866 35 24 35C20.134 35 17 38.134 17 42C17 45.866 20.134 49 24 49Z" fill="#E3E1F9" stroke="#231F20" stroke-width="3" stroke-linecap="round" stroke-linejoin="round"/>
<path d="M53 61C57.4183 61 61 57.4183 61 53C61 48.5817 57.4183 45 53 45C48.5817 45 45 48.5817 45 53C45 57.4183 48.5817 61 53 61Z" fill="#E3E1F9" stroke="#231F20" stroke-width="3" stroke-linecap="round" stroke-linejoin="round"/>
<path d="M32 70C34.7614 70 37 67.7614 37 65C37 62.2386 34.7614 60 32 60C29.2386 60 27 62.2386 27 65C27 67.7614 29.2386 70 32 70Z" fill="#E3E1F9" stroke="#231F20" stroke-width="3" stroke-linecap="round" stroke-linejoin="round"/>
<path d="M69.9999 28.1801C69.9996 26.1321 69.4584 24.1205 68.4312 22.3488C67.404 20.577 65.9271 19.1079 64.1499 18.0901C63.4905 13.6347 61.2698 9.55851 57.8839 6.5885C54.498 3.6185 50.1671 1.94786 45.6638 1.87459C41.1605 1.80131 36.7776 3.33017 33.2969 6.18845C29.8162 9.04673 27.464 13.0485 26.6599 17.4801C25.0964 16.8186 23.4067 16.508 21.7101 16.5703C20.0134 16.6326 18.3511 17.0663 16.8403 17.8407C15.3294 18.6151 14.0068 19.7115 12.9656 21.0525C11.9244 22.3936 11.19 23.9467 10.8142 25.6023C10.4383 27.258 10.4302 28.9759 10.7903 30.635C11.1504 32.2942 11.87 33.8542 12.8984 35.205C13.9268 36.5559 15.239 37.6648 16.7424 38.4535C18.2458 39.2423 19.904 39.6917 21.5999 39.7701H59.2499C62.1751 39.5552 64.9102 38.2402 66.9048 36.0897C68.8994 33.9393 70.0053 31.1131 69.9999 28.1801Z" fill="white" stroke="#231F20" stroke-width="3" stroke-linecap="round" stroke-linejoin="round"/>
<path d="M48.3801 24.41H51.0601C51.3009 24.4089 51.5362 24.4815 51.7345 24.6181C51.9329 24.7546 52.0847 24.9486 52.1696 25.1739C52.2545 25.3992 52.2684 25.6451 52.2095 25.8786C52.1506 26.112 52.0217 26.3219 51.8401 26.48L45.0501 32.37C44.8091 32.5885 44.4954 32.7096 44.1701 32.7096C43.8448 32.7096 43.5311 32.5885 43.2901 32.37L37.0901 26.48C36.9312 26.3158 36.8234 26.109 36.7798 25.8847C36.7361 25.6604 36.7586 25.4282 36.8444 25.2164C36.9301 25.0046 37.0756 24.8223 37.263 24.6916C37.4504 24.5608 37.6717 24.4873 37.9001 24.48H40.3001V15.67C40.3001 15.0945 40.5287 14.5425 40.9357 14.1356C41.3427 13.7286 41.8946 13.5 42.4701 13.5H46.2001C46.7766 13.5 47.3295 13.7283 47.7381 14.135C48.1466 14.5416 48.3775 15.0936 48.3801 15.67V24.41Z" fill="#8A6BE8"/>
<path d="M17.18 38.6601L5.98999 32.0801" stroke="#231F20" stroke-width="3" stroke-linecap="round" stroke-linejoin="round"/>
<path d="M45.65 1.75977L32.39 1.97977" stroke="#231F20" stroke-width="3" stroke-linecap="round" stroke-linejoin="round"/>
</g>
</svg>
