<svg viewBox="0 0 72 72" fill="none" xmlns="http://www.w3.org/2000/svg">
<path d="M14.15 42.9102H27.15V54.2802C27.15 55.1337 26.9819 55.979 26.6552 56.7676C26.3286 57.5562 25.8498 58.2728 25.2462 58.8764C24.6426 59.4799 23.9261 59.9587 23.1375 60.2854C22.3489 60.612 21.5036 60.7802 20.65 60.7802C18.9261 60.7802 17.2728 60.0953 16.0538 58.8764C14.8348 57.6574 14.15 56.0041 14.15 54.2802V42.9102Z" fill="#8A6BE8" stroke="#231F20" stroke-width="3" stroke-linecap="round" stroke-linejoin="round"/>
<path d="M20 20.6699C20 20.6699 2.15002 18.9999 2.15002 32.6599C2.15002 46.3199 18.9 44.4799 18.9 44.4799C16.9116 40.709 15.8167 36.5314 15.7 32.2699C15.8569 28.0431 17.3639 23.9777 20 20.6699Z" fill="#8A6BE8"/>
<path d="M46.68 15.6299C38.205 19.1017 29.1572 20.9635 20 21.1199C20 21.1199 16.18 26.8399 16.18 32.9099C16.3206 36.9186 17.4215 40.835 19.39 44.3299C28.7779 43.7276 38.1883 45.09 47.02 48.3299C43.33 36.6899 42.26 25.3999 46.68 15.6299Z" fill="#E3E1F9"/>
<path d="M48.15 15.1602V49.1602L41.39 47.0002L40.55 46.7402C34.7089 44.9981 28.6454 44.1155 22.55 44.1202H13.65C10.6 44.1202 7.67496 42.9086 5.5183 40.7519C3.36163 38.5952 2.15002 35.6701 2.15002 32.6202C2.15002 29.5702 3.36163 26.6451 5.5183 24.4884C7.67496 22.3318 10.6 21.1202 13.65 21.1202H21.58C27.3699 21.0525 33.122 20.1774 38.67 18.5202C40.1 18.1002 41.51 17.6302 42.91 17.1002L48.15 15.1602Z" stroke="#231F20" stroke-width="3" stroke-linecap="round" stroke-linejoin="round"/>
<path d="M51.11 52.8801C54.3132 52.8801 56.91 43.7557 56.91 32.5001C56.91 21.2446 54.3132 12.1201 51.11 12.1201C47.9067 12.1201 45.31 21.2446 45.31 32.5001C45.31 43.7557 47.9067 52.8801 51.11 52.8801Z" fill="white"/>
<path d="M58.13 32.1602C58.13 43.7202 55.13 53.1002 51.4 53.1002C50.22 53.1002 49.1 52.1002 48.13 50.4702C46.38 47.4702 45.13 42.0402 44.77 35.6602C44.7 34.5202 44.67 33.3502 44.67 32.1602C44.67 30.9702 44.67 29.8002 44.77 28.6602C45.11 22.2802 46.38 16.8902 48.13 13.8502C49.13 12.1702 50.22 11.2202 51.4 11.2202C55.12 11.2202 58.13 20.6002 58.13 32.1602Z" stroke="#231F20" stroke-width="3" stroke-linecap="round" stroke-linejoin="round"/>
<path d="M20.54 44.1599C17.7128 41.0962 16.1451 37.0788 16.15 32.9099C16.1453 30.6727 16.6288 28.4615 17.5666 26.4304C18.5044 24.3993 19.8741 22.5972 21.58 21.1499" stroke="#231F20" stroke-width="3" stroke-linecap="round" stroke-linejoin="round"/>
<path d="M52.15 32.1602C52.15 33.0884 51.7812 33.9787 51.1249 34.635C50.4685 35.2914 49.5782 35.6602 48.65 35.6602H44.79C44.71 34.5202 44.67 33.3502 44.67 32.1602C44.67 30.9702 44.67 29.8002 44.79 28.6602H48.65C49.5766 28.6654 50.4638 29.0358 51.1191 29.6911C51.7743 30.3463 52.1447 31.2335 52.15 32.1602Z" fill="#E3E1F9" stroke="#231F20" stroke-width="3" stroke-linecap="round" stroke-linejoin="round"/>
<path d="M69.56 32.6401H65.7" stroke="#231F20" stroke-width="3" stroke-linecap="round" stroke-linejoin="round"/>
<path d="M69.56 22.48L65.7 24.48" stroke="#231F20" stroke-width="3" stroke-linecap="round" stroke-linejoin="round"/>
<path d="M69.56 42.7998L65.7 40.7998" stroke="#231F20" stroke-width="3" stroke-linecap="round" stroke-linejoin="round"/>
</svg>
