<svg viewBox="0 0 72 72" fill="none" xmlns="http://www.w3.org/2000/svg">
<path d="M12.96 26.1099L13.41 55.7999L23.25 61.7499L24.66 30.2299L12.96 26.1099Z" fill="#8A6BE8"/>
<path d="M23.64 29.3398V60.6198L36.46 64.2198L50.22 60.3098V29.4998L37.22 33.1198L23.64 29.3398Z" fill="#E3E1F9"/>
<path d="M50.22 31.07L50.62 58.64L57.38 54.53L57.51 27.75L50.22 31.07Z" fill="white"/>
<path d="M54.4901 58.0001L47.1101 62.1101C43.722 64.0007 39.9163 65.0172 36.0368 65.0679C32.1573 65.1185 28.3263 64.2016 24.8901 62.4001L16.4301 58.0001C15.5234 57.5174 14.7651 56.797 14.2366 55.9162C13.7082 55.0354 13.4293 54.0273 13.4301 53.0001V26.1401H57.4301V53.0701C57.423 54.0792 57.1468 55.068 56.63 55.9347C56.1132 56.8013 55.3745 57.5143 54.4901 58.0001Z" stroke="#231F20" stroke-width="3" stroke-linecap="round" stroke-linejoin="round"/>
<path d="M24.66 59.89V30.23" stroke="#231F20" stroke-width="3" stroke-linecap="round" stroke-linejoin="round"/>
<path d="M49.2 59.89V30.23" stroke="#231F20" stroke-width="3" stroke-linecap="round" stroke-linejoin="round"/>
<path d="M34.78 10L69.14 21.23L34.78 33.58L1.32996 21.41L34.78 10Z" fill="white"/>
<path d="M67.3301 22.7798L39.2301 32.1098C36.6331 32.9723 33.827 32.9723 31.2301 32.1098L3.14006 22.7798C2.89532 22.6942 2.68323 22.5347 2.53317 22.3233C2.3831 22.1119 2.30249 21.859 2.30249 21.5998C2.30249 21.3405 2.3831 21.0877 2.53317 20.8763C2.68323 20.6648 2.89532 20.5053 3.14006 20.4198L31.2401 11.0898C33.837 10.2272 36.6431 10.2272 39.2401 11.0898L67.3401 20.4198C67.5844 20.5064 67.7959 20.6668 67.945 20.8788C68.0942 21.0909 68.1738 21.3441 68.1727 21.6033C68.1716 21.8626 68.0899 22.1151 67.9389 22.3259C67.7879 22.5367 67.5752 22.6953 67.3301 22.7798V22.7798Z" stroke="#231F20" stroke-width="3" stroke-linecap="round" stroke-linejoin="round"/>
<path d="M65.91 24.1001V45.5701" stroke="#231F20" stroke-width="3" stroke-linecap="round" stroke-linejoin="round"/>
<path d="M65.91 47.6199C68.1688 47.6199 69.9999 45.7888 69.9999 43.5299C69.9999 41.2711 68.1688 39.4399 65.91 39.4399C63.6511 39.4399 61.8199 41.2711 61.8199 43.5299C61.8199 45.7888 63.6511 47.6199 65.91 47.6199Z" fill="#8A6BE8" stroke="#231F20" stroke-width="3" stroke-linecap="round" stroke-linejoin="round"/>
</svg>
