<svg viewBox="0 0 72 72" fill="none" xmlns="http://www.w3.org/2000/svg">
<path d="M12 16H61V39C61 42.9782 59.4196 46.7936 56.6066 49.6066C53.7936 52.4196 49.9782 54 46 54H23.51C20.4574 54 17.5297 52.7873 15.3712 50.6288C13.2127 48.4703 12 45.5426 12 42.49V16Z" fill="white"/>
<path d="M9.11996 52.0698L14.19 52.2498L11 42.7098L10.27 14.7098L14 4.08984L9.99996 4.52984H9.11996C7.26345 4.52984 5.48297 5.26734 4.17022 6.5801C2.85746 7.89285 2.11996 9.67333 2.11996 11.5298V43.2798C2.08996 52.0698 5.23996 52.0698 9.11996 52.0698Z" fill="#8A6BE8"/>
<path d="M18.69 52.5799L5.90003 50.7999C3.90003 50.4599 2.41003 49.0399 2.41003 47.3899V8.9999C2.47326 8.15502 2.82453 7.35742 3.40514 6.7404C3.98576 6.12339 4.76055 5.72432 5.60003 5.6099L17.6 2.8999" stroke="#231F20" stroke-width="3" stroke-linecap="round" stroke-linejoin="round"/>
<path d="M17.62 3.64014H54.78C56.2705 3.64014 57.7 4.23224 58.7539 5.2862C59.8079 6.34015 60.4 7.76962 60.4 9.26014V16.6401H12V9.26014C12 7.76962 12.5921 6.34015 13.6461 5.2862C14.7 4.23224 16.1295 3.64014 17.62 3.64014Z" fill="#E3E1F9"/>
<path d="M18.5 11.6401C19.3284 11.6401 20 10.9686 20 10.1401C20 9.31171 19.3284 8.64014 18.5 8.64014C17.6716 8.64014 17 9.31171 17 10.1401C17 10.9686 17.6716 11.6401 18.5 11.6401Z" fill="#D87D7D"/>
<path d="M23.5 11.6401C24.3284 11.6401 25 10.9686 25 10.1401C25 9.31171 24.3284 8.64014 23.5 8.64014C22.6716 8.64014 22 9.31171 22 10.1401C22 10.9686 22.6716 11.6401 23.5 11.6401Z" fill="#F2BE5E"/>
<path d="M28.5 11.6401C29.3284 11.6401 30 10.9686 30 10.1401C30 9.31171 29.3284 8.64014 28.5 8.64014C27.6716 8.64014 27 9.31171 27 10.1401C27 10.9686 27.6716 11.6401 28.5 11.6401Z" fill="#70CCBA"/>
<path d="M52.3 52.6401H19.7C18.5571 52.6415 17.4252 52.4173 16.3691 51.9806C15.313 51.5438 14.3534 50.903 13.5452 50.0949C12.7371 49.2868 12.0963 48.3272 11.6596 47.271C11.2228 46.2149 10.9987 45.083 11 43.9401V11.3301C11 10.1881 11.2251 9.05728 11.6624 8.00231C12.0998 6.94734 12.7408 5.98892 13.5488 5.18185C14.3568 4.37477 15.3159 3.73488 16.3714 3.29876C17.4269 2.86263 18.558 2.63883 19.7 2.64014H52.3C53.442 2.63883 54.5731 2.86263 55.6286 3.29876C56.6841 3.73488 57.6432 4.37477 58.4512 5.18185C59.2592 5.98892 59.9002 6.94734 60.3376 8.00231C60.7749 9.05728 61 10.1881 61 11.3301V43.9401C61.0013 45.083 60.7772 46.2149 60.3404 47.271C59.9037 48.3272 59.2629 49.2868 58.4548 50.0949C57.6466 50.903 56.687 51.5438 55.6309 51.9806C54.5748 52.4173 53.4429 52.6415 52.3 52.6401V52.6401Z" stroke="#231F20" stroke-width="3" stroke-linecap="round" stroke-linejoin="round"/>
<path d="M69.7899 47.76C69.7886 52.135 68.497 56.4123 66.0766 60.0568C63.6563 63.7013 60.2149 66.551 56.183 68.2493C52.1511 69.9475 47.7079 70.4189 43.4095 69.6044C39.111 68.7899 35.1482 66.7257 32.0171 63.6702C28.886 60.6146 26.7257 56.7035 25.8064 52.4262C24.8872 48.1489 25.2499 43.6955 26.8492 39.6233C28.4484 35.5512 31.2132 32.0412 34.7975 29.5326C38.3818 27.024 42.6263 25.6282 46.9999 25.52H47.9999C53.8208 25.6353 59.3642 28.0295 63.4388 32.1881C67.5133 36.3468 69.7937 41.938 69.7899 47.76Z" fill="white" stroke="#231F20" stroke-width="3" stroke-linecap="round" stroke-linejoin="round"/>
<path d="M37.55 51C39.2069 51 40.55 49.6569 40.55 48C40.55 46.3431 39.2069 45 37.55 45C35.8932 45 34.55 46.3431 34.55 48C34.55 49.6569 35.8932 51 37.55 51Z" fill="#241F20"/>
<path d="M57.55 51C59.2069 51 60.55 49.6569 60.55 48C60.55 46.3431 59.2069 45 57.55 45C55.8932 45 54.55 46.3431 54.55 48C54.55 49.6569 55.8932 51 57.55 51Z" fill="#241F20"/>
<path d="M49.6 51C49.7215 51.0002 49.8414 51.0285 49.9502 51.0826C50.059 51.1367 50.1539 51.2152 50.2274 51.312C50.3009 51.4087 50.3511 51.5212 50.3741 51.6405C50.3971 51.7598 50.3923 51.8828 50.36 52C50.1459 52.5725 49.7621 53.0659 49.26 53.4143C48.7578 53.7627 48.1612 53.9493 47.55 53.9493C46.9388 53.9493 46.3422 53.7627 45.84 53.4143C45.3378 53.0659 44.954 52.5725 44.74 52C44.7079 51.8837 44.7029 51.7615 44.7253 51.6429C44.7478 51.5243 44.7971 51.4125 44.8695 51.3159C44.942 51.2194 45.0355 51.1407 45.1431 51.0859C45.2506 51.0312 45.3693 51.0018 45.49 51H49.6Z" fill="#241F20"/>
<path d="M68.7299 41C68.34 41 67.9499 41 67.5499 41C63.0318 40.9994 58.6469 39.469 55.1096 36.6581C51.5723 33.8471 49.0911 29.9213 48.0699 25.52C52.6949 25.6347 57.1694 27.1868 60.8718 29.961C64.5743 32.7351 67.3208 36.5934 68.7299 41Z" fill="#8A6BE8" stroke="#231F20" stroke-width="3" stroke-linecap="round" stroke-linejoin="round"/>
<path d="M47 25.52C45.9801 29.9163 43.5032 33.8384 39.9721 36.6488C36.4409 39.4592 32.063 40.9927 27.55 41C27.15 41 26.76 41 26.37 41C27.7775 36.5982 30.5195 32.7432 34.2159 29.9695C37.9124 27.1958 42.3802 25.6408 47 25.52Z" fill="#8A6BE8" stroke="#231F20" stroke-width="3" stroke-linecap="round" stroke-linejoin="round"/>
<path d="M11 16.6401H61" stroke="#231F20" stroke-width="3" stroke-linecap="round" stroke-linejoin="round"/>
</svg>
