<svg viewBox="0 0 72 72" fill="none" xmlns="http://www.w3.org/2000/svg">
<path d="M17.41 63.6599L8.55 61.9999C6.71541 61.6618 5.05666 60.6932 3.86061 59.2616C2.66456 57.83 2.00641 56.0254 2 54.1599V29.4799C2.00175 27.611 2.65778 25.8017 3.85423 24.366C5.05068 22.9302 6.71204 21.9587 8.55 21.6199L17.62 19.9399L17.41 63.6599Z" fill="#8A6BE8" stroke="#231F20" stroke-width="3" stroke-linecap="round" stroke-linejoin="round"/>
<path d="M56.42 19.8301H18.58C14.3937 19.8301 11 23.2238 11 27.4101V56.2501C11 60.4364 14.3937 63.8301 18.58 63.8301H56.42C60.6063 63.8301 64 60.4364 64 56.2501V27.4101C64 23.2238 60.6063 19.8301 56.42 19.8301Z" fill="#E3E1F9" stroke="#231F20" stroke-width="3" stroke-linecap="round" stroke-linejoin="round"/>
<path d="M13.77 21.8901L40.5 41.8301L58 21.8901" fill="white"/>
<path d="M13.77 21.8901L40.5 41.8301L58 21.8901" stroke="#231F20" stroke-width="3" stroke-linecap="round" stroke-linejoin="round"/>
<path d="M57.33 32.71C64.5097 32.71 70.33 26.8897 70.33 19.71C70.33 12.5303 64.5097 6.70996 57.33 6.70996C50.1503 6.70996 44.33 12.5303 44.33 19.71C44.33 26.8897 50.1503 32.71 57.33 32.71Z" fill="white" stroke="#231F20" stroke-width="3" stroke-linecap="round" stroke-linejoin="round"/>
<path d="M51.83 19.71H62.83" stroke="#231F20" stroke-width="3" stroke-linecap="round" stroke-linejoin="round"/>
<path d="M57.33 25.21V14.21" stroke="#231F20" stroke-width="3" stroke-linecap="round" stroke-linejoin="round"/>
</svg>
