<svg viewBox="0 0 72 72" fill="none" xmlns="http://www.w3.org/2000/svg">
<path d="M11.51 48.13L17.36 68.41L70 69L63 47L11.51 48.13Z" fill="white"/>
<path d="M9 36L12.46 47.44L63 47L60 36H9Z" fill="#E3E1F9"/>
<path d="M60 36H8L18 70H70L60 36Z" stroke="#231F20" stroke-width="3" stroke-linecap="round" stroke-linejoin="round"/>
<path d="M8 36L2 40L10 68L18 70L8 36Z" fill="#8A6BE8" stroke="#231F20" stroke-width="3" stroke-linecap="round" stroke-linejoin="round"/>
<path d="M16.5 43C17.3284 43 18 42.3284 18 41.5C18 40.6716 17.3284 40 16.5 40C15.6716 40 15 40.6716 15 41.5C15 42.3284 15.6716 43 16.5 43Z" fill="#D87D7D"/>
<path d="M21.5 43C22.3284 43 23 42.3284 23 41.5C23 40.6716 22.3284 40 21.5 40C20.6716 40 20 40.6716 20 41.5C20 42.3284 20.6716 43 21.5 43Z" fill="#F2BE5E"/>
<path d="M26.5 43C27.3284 43 28 42.3284 28 41.5C28 40.6716 27.3284 40 26.5 40C25.6716 40 25 40.6716 25 41.5C25 42.3284 25.6716 43 26.5 43Z" fill="#70CCBA"/>
<path d="M39.85 2C34.8507 2 30.0561 3.98598 26.521 7.52104C22.986 11.0561 21 15.8507 21 20.85C21 28.38 30.85 44.26 36.31 52.49C36.26 52.28 50.63 57.67 50.63 57.67C50.63 57.67 61.4 31.27 61.4 20.85C61.4 12.96 58.4 4.85 51.53 2H39.85ZM39.85 28.94C34.85 28.94 32.67 24.94 32.67 19.94C32.67 14.94 34.9 10.94 39.85 10.94C42.2369 10.94 44.5261 11.8882 46.214 13.576C47.9018 15.2639 48.85 17.5531 48.85 19.94C48.85 22.3269 47.9018 24.6161 46.214 26.304C44.5261 27.9918 42.2369 28.94 39.85 28.94Z" fill="#8A6BE8" stroke="#231F20" stroke-width="3" stroke-linecap="round" stroke-linejoin="round"/>
<path d="M50.63 2C45.6298 2 40.8342 3.98566 37.2975 7.52043C33.7609 11.0552 31.7727 15.8498 31.77 20.85C31.77 31.27 50.63 57.67 50.63 57.67C50.63 57.67 69.48 31.27 69.48 20.85C69.48 15.8507 67.494 11.0561 63.959 7.52104C60.4239 3.98598 55.6294 2 50.63 2ZM50.63 28.94C48.85 28.94 47.1099 28.4122 45.6299 27.4232C44.1498 26.4343 42.9963 25.0287 42.3151 23.3842C41.6339 21.7396 41.4557 19.93 41.803 18.1842C42.1502 16.4384 43.0074 14.8347 44.2661 13.576C45.5247 12.3174 47.1284 11.4602 48.8742 11.1129C50.62 10.7657 52.4296 10.9439 54.0742 11.6251C55.7187 12.3063 57.1243 13.4598 58.1132 14.9399C59.1022 16.4199 59.63 18.16 59.63 19.94C59.63 22.3269 58.6818 24.6161 56.994 26.304C55.3062 27.9918 53.017 28.94 50.63 28.94Z" fill="white" stroke="#231F20" stroke-width="3" stroke-linecap="round" stroke-linejoin="round"/>
<path d="M50.63 28.94C55.5895 28.94 59.61 24.9195 59.61 19.96C59.61 15.0005 55.5895 10.98 50.63 10.98C45.6705 10.98 41.65 15.0005 41.65 19.96C41.65 24.9195 45.6705 28.94 50.63 28.94Z" fill="#E3E1F9" stroke="#231F20" stroke-width="3" stroke-linecap="round" stroke-linejoin="round"/>
<path d="M58 47H63" stroke="#231F20" stroke-width="3" stroke-linecap="round" stroke-linejoin="round"/>
<path d="M13 47H32" stroke="#231F20" stroke-width="3" stroke-linecap="round" stroke-linejoin="round"/>
</svg>
