<svg viewBox="0 0 72 72" fill="none" xmlns="http://www.w3.org/2000/svg">
<path d="M17.27 58.7701L8.41999 57.1501C6.5785 56.8131 4.9135 55.841 3.71486 54.403C2.51621 52.965 1.85983 51.1521 1.85999 49.2801V24.6001C1.86174 22.7311 2.51776 20.9218 3.71421 19.4861C4.91066 18.0503 6.57202 17.0788 8.40999 16.7401L17.49 15.0601L17.27 58.7701Z" fill="#8A6BE8" stroke="#231F20" stroke-width="3" stroke-linecap="round" stroke-linejoin="round"/>
<path d="M69.86 23V51C69.86 53.1217 69.0171 55.1566 67.5168 56.6569C66.0165 58.1571 63.9817 59 61.86 59H18.86C16.7383 59 14.7034 58.1571 13.2031 56.6569C11.7028 55.1566 10.86 53.1217 10.86 51V23C10.86 20.8783 11.7028 18.8434 13.2031 17.3431C14.7034 15.8429 16.7383 15 18.86 15H61.86C63.9817 15 66.0165 15.8429 67.5168 17.3431C69.0171 18.8434 69.86 20.8783 69.86 23Z" fill="white" stroke="#231F20" stroke-width="3" stroke-linecap="round" stroke-linejoin="round"/>
<path d="M41.87 32.0001C41.6801 31.4682 41.3401 31.0027 40.891 30.6602C40.442 30.3176 39.9032 30.1126 39.34 30.0701C39.1134 30.0563 38.8863 30.0894 38.6731 30.1674C38.4598 30.2454 38.265 30.3666 38.1007 30.5233C37.9365 30.6801 37.8063 30.8691 37.7184 31.0784C37.6306 31.2878 37.5868 31.513 37.59 31.7401C37.59 32.8901 38.84 33.7401 40.33 34.4501C42.52 35.4501 45.42 36.7801 45.4 39.9401C45.4968 41.2295 45.1117 42.5089 44.3191 43.5306C43.5265 44.5522 42.383 45.2433 41.11 45.4701V47.7701H37.93V45.4601C36.7652 45.1705 35.7072 44.5548 34.88 43.6851C34.0528 42.8155 33.4909 41.7279 33.26 40.5501L36 38.8301C36.7 41.3101 37.9 42.5301 39.63 42.5301C39.9521 42.5771 40.2808 42.5482 40.5898 42.4458C40.8988 42.3433 41.1796 42.1701 41.4098 41.9399C41.64 41.7097 41.8132 41.4289 41.9157 41.1199C42.0182 40.8109 42.047 40.4822 42 40.1601C42 39.0901 40.83 38.2501 39.29 37.6001C37.12 36.6901 34.29 35.3001 34.35 31.9301C34.3267 30.849 34.6668 29.7914 35.3159 28.9265C35.9649 28.0617 36.8855 27.4397 37.93 27.1601V24.8301H41.11V27.2101C41.888 27.4261 42.607 27.8154 43.2132 28.3488C43.8193 28.8822 44.2969 29.5459 44.61 30.2901L41.87 32.0001Z" fill="#8A6BE8"/>
<path d="M69.86 23.0002V31.0002H69.76C68.0613 31.0002 66.3793 30.665 64.8103 30.0137C63.2414 29.3624 61.8164 28.4079 60.6171 27.2048C59.4178 26.0018 58.4677 24.5739 57.8212 23.0029C57.1748 21.432 56.8448 19.7489 56.85 18.0502C56.8483 17.0051 56.9759 15.9639 57.23 14.9502H61.86C62.9148 14.9502 63.9592 15.1587 64.9331 15.5639C65.907 15.9691 66.7911 16.5628 67.5346 17.311C68.2782 18.0592 68.8664 18.947 69.2655 19.9234C69.6646 20.8998 69.8666 21.9454 69.86 23.0002Z" fill="#8A6BE8" stroke="#231F20" stroke-width="3" stroke-linecap="round" stroke-linejoin="round"/>
<path d="M69.86 43.4702V51.0002C69.86 53.1219 69.0171 55.1568 67.5168 56.6571C66.0165 58.1574 63.9817 59.0002 61.86 59.0002H57.1C56.9347 58.1569 56.8509 57.2996 56.85 56.4402C56.8434 54.7402 57.1724 53.0555 57.8181 51.4829C58.4638 49.9102 59.4135 48.4805 60.6129 47.2756C61.8122 46.0707 63.2375 45.1143 64.8072 44.4613C66.3768 43.8083 68.0599 43.4715 69.76 43.4702H69.86Z" fill="#8A6BE8" stroke="#231F20" stroke-width="3" stroke-linecap="round" stroke-linejoin="round"/>
<path d="M24.35 18.05C24.3539 19.7492 24.0227 21.4325 23.3751 23.0035C22.7276 24.5745 21.7766 26.0023 20.5764 27.2052C19.3763 28.4081 17.9507 29.3625 16.3812 30.0137C14.8117 30.6648 13.1292 31 11.43 31C11.2401 31.01 11.0499 31.01 10.86 31V23C10.86 20.8783 11.7028 18.8434 13.2031 17.3431C14.7034 15.8429 16.7383 15 18.86 15H24C24.2399 15.9987 24.3575 17.0229 24.35 18.05Z" fill="#8A6BE8" stroke="#231F20" stroke-width="3" stroke-linecap="round" stroke-linejoin="round"/>
<path d="M24.35 56.3899C24.3522 57.266 24.2685 58.1402 24.1 58.9999H18.86C16.7383 58.9999 14.7034 58.157 13.2031 56.6568C11.7028 55.1565 10.86 53.1216 10.86 50.9999V43.4899C11.0499 43.4799 11.2401 43.4799 11.43 43.4899C14.8523 43.4925 18.134 44.8519 20.5558 47.2699C22.9777 49.688 24.342 52.9676 24.35 56.3899Z" fill="#8A6BE8" stroke="#231F20" stroke-width="3" stroke-linecap="round" stroke-linejoin="round"/>
</svg>
