<svg viewBox="0 0 72 72" fill="none" xmlns="http://www.w3.org/2000/svg">
<g>
<path d="M10.45 20.3098H70.36V57.3098C70.3467 59.6208 69.4187 61.8326 67.7789 63.4611C66.1391 65.0897 63.921 66.0024 61.61 65.9998H19.19C16.872 65.9998 14.6489 65.0789 13.0098 63.4399C11.3708 61.8008 10.45 59.5778 10.45 57.2598V20.2598V20.3098Z" fill="white"/>
<path d="M9.42003 63.0001L12 64.0001L10.45 8.12012H9.45003C7.29912 8.12012 5.23631 8.97456 3.71539 10.4955C2.19447 12.0164 1.34003 14.0792 1.34003 16.2301V52.8101C1.31003 63.0001 4.94003 63.0001 9.42003 63.0001Z" fill="#8A6BE8"/>
<path d="M16.15 7.10986H64.65C66.1617 7.10986 67.6115 7.7104 68.6805 8.77935C69.7494 9.84831 70.3499 11.2981 70.3499 12.8099V20.3099H10.45V12.8099C10.45 11.2981 11.0505 9.84831 12.1194 8.77935C13.1884 7.7104 14.6382 7.10986 16.15 7.10986Z" fill="#E3E1F9"/>
<path d="M17.8301 65.9202L5.48006 63.4702C3.05006 63.0702 1.31006 61.3602 1.31006 59.3902V13.4802C1.31006 11.6102 2.86006 9.98023 5.12006 9.48023L13.8501 7.24023" stroke="#231F20" stroke-width="3" stroke-linecap="round" stroke-linejoin="round"/>
<path fill-rule="evenodd" clip-rule="evenodd" d="M44 30.5701L45.83 36.6401C45.8924 36.8612 46.0223 37.0572 46.2016 37.2006C46.381 37.3441 46.6007 37.4279 46.83 37.4401L52.53 37.5401C52.8607 37.5795 53.1725 37.7151 53.4267 37.9302C53.681 38.1452 53.8665 38.4302 53.9602 38.7497C54.0539 39.0692 54.0517 39.4092 53.9539 39.7275C53.8561 40.0458 53.667 40.3284 53.41 40.5401L48.86 44.1701C48.6779 44.3202 48.5445 44.5212 48.4768 44.7473C48.4092 44.9735 48.4103 45.2146 48.48 45.4401L50.25 51.2801C50.71 52.8001 49.08 54.1601 47.86 53.2801L43.08 49.7801C42.8957 49.6366 42.6687 49.5587 42.435 49.5587C42.2014 49.5587 41.9744 49.6366 41.79 49.7801L36.79 53.7801C36.5126 54.015 36.1665 54.1535 35.8036 54.1749C35.4407 54.1963 35.0807 54.0995 34.7775 53.8989C34.4744 53.6983 34.2445 53.4048 34.1223 53.0624C34.0002 52.72 33.9924 52.3473 34.1 52.0001L36.1 45.6801C36.1781 45.4439 36.1795 45.1891 36.1041 44.952C36.0287 44.7149 35.8803 44.5078 35.68 44.3601L30.39 40.4801C30.0764 40.2586 29.8419 39.9425 29.7207 39.5781C29.5995 39.2138 29.598 38.8202 29.7164 38.4549C29.8348 38.0897 30.0669 37.7718 30.3788 37.5479C30.6907 37.3239 31.0661 37.2056 31.45 37.2101L37.91 37.3201C38.158 37.3219 38.3995 37.2414 38.5968 37.0912C38.794 36.941 38.9359 36.7296 39 36.4901L40.91 30.4201C41.0286 30.0955 41.2479 29.8174 41.5357 29.6263C41.8236 29.4352 42.1651 29.3411 42.5103 29.3579C42.8554 29.3746 43.1861 29.5013 43.4542 29.7194C43.7222 29.9375 43.9135 30.2356 44 30.5701Z" fill="#8A6BE8"/>
<path d="M15.4801 7.1099H65.9001C67.0803 7.1099 68.2121 7.57874 69.0467 8.41328C69.8812 9.24782 70.35 10.3797 70.35 11.5599V56.9999C70.35 59.3869 69.4018 61.676 67.714 63.3639C66.0262 65.0517 63.737 65.9999 61.35 65.9999H19.4601C17.0731 65.9999 14.7839 65.0517 13.0961 63.3639C11.4083 61.676 10.4601 59.3869 10.4601 56.9999V12.1399C10.4561 11.4791 10.5831 10.824 10.8339 10.2126C11.0846 9.60123 11.4541 9.04559 11.9209 8.57785C12.3877 8.11011 12.9426 7.73954 13.5535 7.48758C14.1644 7.23561 14.8192 7.10725 15.4801 7.1099V7.1099Z" stroke="#231F20" stroke-width="3" stroke-linecap="round" stroke-linejoin="round"/>
<path d="M10.45 20.31L70.36 20.29" stroke="#231F20" stroke-width="3" stroke-linecap="round" stroke-linejoin="round"/>
<path d="M17.05 15.2299C17.8895 15.2299 18.57 14.5494 18.57 13.7099C18.57 12.8705 17.8895 12.1899 17.05 12.1899C16.2106 12.1899 15.53 12.8705 15.53 13.7099C15.53 14.5494 16.2106 15.2299 17.05 15.2299Z" fill="#D87D7D"/>
<path d="M22.13 15.2299C22.9695 15.2299 23.65 14.5494 23.65 13.7099C23.65 12.8705 22.9695 12.1899 22.13 12.1899C21.2905 12.1899 20.61 12.8705 20.61 13.7099C20.61 14.5494 21.2905 15.2299 22.13 15.2299Z" fill="#F2BE5E"/>
<path d="M27.2001 15.2299C28.0395 15.2299 28.7201 14.5494 28.7201 13.7099C28.7201 12.8705 28.0395 12.1899 27.2001 12.1899C26.3606 12.1899 25.6801 12.8705 25.6801 13.7099C25.6801 14.5494 26.3606 15.2299 27.2001 15.2299Z" fill="#70CCBA"/>
</g>
</svg>
