<svg id="Layer_1" data-name="Layer 1" xmlns="http://www.w3.org/2000/svg" viewBox="0 0 72 72"><defs><style>.cls-1{fill:#8a6be8;}.cls-1,.cls-2,.cls-3{stroke:#231f20;stroke-linecap:round;stroke-linejoin:round;stroke-width:3px;}.cls-2{fill:#fff;}.cls-3{fill:none;}.cls-4{fill:#231f20;}</style></defs><title>chat-bubble-icons</title><path class="cls-1" d="M47.85,36.39h0a12,12,0,0,0,8,5.49l5,.94-7.24-7.45h3.1C58.7,35.37,36.63,2,34.63,2L28.92,4.53a4,4,0,0,0-2.36,3.6l-.31,24.4Z"/><path class="cls-2" d="M36.58,36.39H53.45l6.09,5.79a2.42,2.42,0,0,0,4.08-1.75v-4h3.1a3.62,3.62,0,0,0,3.62-3.62V5a3.62,3.62,0,0,0-3.62-3.62H36.58A3.62,3.62,0,0,0,33,5V32.77A3.62,3.62,0,0,0,36.58,36.39Z"/><path class="cls-1" d="M34.2,62.6h-18l.85,7.64-4.66-1.42a3.63,3.63,0,0,1-2.57-3.45V63.19L4.31,62a3.63,3.63,0,0,1-2.87-3.54V33.8a3.61,3.61,0,0,1,2.92-3.55l6.78-1.36Z"/><path class="cls-2" d="M42,63.8H25.14l-6.09,5.79A2.42,2.42,0,0,1,15,67.84v-4h-3.1a3.62,3.62,0,0,1-3.62-3.62V32.44a3.62,3.62,0,0,1,3.62-3.62H42a3.62,3.62,0,0,1,3.62,3.62V60.18A3.62,3.62,0,0,1,42,63.8Z"/><line class="cls-3" x1="41.45" y1="22.25" x2="55.58" y2="22.25"/><line class="cls-3" x1="41.45" y1="13.27" x2="63.42" y2="13.27"/><circle class="cls-4" cx="19.25" cy="47" r="1.99"/><circle class="cls-4" cx="27.25" cy="47" r="1.99"/><circle class="cls-4" cx="35.26" cy="47" r="1.99"/></svg>